<mxfile host="65bd71144e">
    <diagram id="VQgyW21uURbsOimKwnUJ" name="Page-1">
        <mxGraphModel dx="654" dy="1596" grid="1" gridSize="10" guides="1" tooltips="1" connect="1" arrows="1" fold="1" page="1" pageScale="1" pageWidth="850" pageHeight="1100" math="0" shadow="0">
            <root>
                <mxCell id="0"/>
                <mxCell id="1" parent="0"/>
                <mxCell id="25" value="" style="rounded=0;whiteSpace=wrap;html=1;shadow=0;glass=0;sketch=0;strokeColor=#36393d;strokeWidth=1;fontSize=25;fillColor=#86A8BF;" vertex="1" parent="1">
                    <mxGeometry x="1200" y="890" width="1060" height="810" as="geometry"/>
                </mxCell>
                <mxCell id="26" value="" style="rounded=0;whiteSpace=wrap;html=1;shadow=0;glass=0;sketch=0;strokeColor=default;strokeWidth=1;fontSize=25;fillColor=none;gradientColor=default;" vertex="1" parent="1">
                    <mxGeometry x="1380" y="1040" width="840" height="620" as="geometry"/>
                </mxCell>
                <mxCell id="13" value="" style="line;strokeWidth=2;html=1;shadow=0;sketch=0;strokeColor=default;fillColor=none;gradientColor=default;" vertex="1" parent="1">
                    <mxGeometry x="1200" y="1000" width="1060" height="10" as="geometry"/>
                </mxCell>
                <mxCell id="14" value="" style="line;strokeWidth=2;html=1;shadow=0;sketch=0;strokeColor=default;fillColor=none;gradientColor=default;rotation=-90;" vertex="1" parent="1">
                    <mxGeometry x="942.5" y="1287.5" width="805" height="10" as="geometry"/>
                </mxCell>
                <mxCell id="15" value="Dasboard" style="text;html=1;points=[];align=left;verticalAlign=top;spacingTop=-4;fontSize=14;fontFamily=Verdana" vertex="1" parent="1">
                    <mxGeometry x="1220" y="1020" width="170" height="20" as="geometry"/>
                </mxCell>
                <mxCell id="16" value="Produk" style="text;html=1;points=[];align=left;verticalAlign=top;spacingTop=-4;fontSize=14;fontFamily=Verdana" vertex="1" parent="1">
                    <mxGeometry x="1220" y="1056" width="170" height="20" as="geometry"/>
                </mxCell>
                <mxCell id="17" value="Penjualan" style="text;html=1;points=[];align=left;verticalAlign=top;spacingTop=-4;fontSize=14;fontFamily=Verdana" vertex="1" parent="1">
                    <mxGeometry x="1220" y="1091" width="170" height="20" as="geometry"/>
                </mxCell>
                <mxCell id="18" value="Pembelian" style="text;html=1;points=[];align=left;verticalAlign=top;spacingTop=-4;fontSize=14;fontFamily=Verdana" vertex="1" parent="1">
                    <mxGeometry x="1220" y="1127" width="170" height="20" as="geometry"/>
                </mxCell>
                <mxCell id="19" value="&lt;font style=&quot;font-size: 25px;&quot;&gt;Header&lt;/font&gt;" style="text;strokeColor=none;fillColor=none;html=1;fontSize=24;fontStyle=1;verticalAlign=middle;align=center;shadow=0;sketch=0;strokeWidth=1;" vertex="1" parent="1">
                    <mxGeometry x="1730" y="930" width="100" height="40" as="geometry"/>
                </mxCell>
                <mxCell id="23" value="&lt;font style=&quot;font-size: 25px;&quot;&gt;Data Dasboard&lt;/font&gt;" style="text;strokeColor=none;fillColor=none;html=1;fontSize=24;fontStyle=1;verticalAlign=middle;align=center;shadow=0;sketch=0;strokeWidth=1;" vertex="1" parent="1">
                    <mxGeometry x="1655" y="1313.75" width="250" height="72.5" as="geometry"/>
                </mxCell>
            </root>
        </mxGraphModel>
    </diagram>
</mxfile>